<svg xmlns="http://www.w3.org/2000/svg" viewBox="0 0 120 120" width="120" height="120" role="img" aria-label="Aurora Vance"><rect width="120" height="120" fill="#EDE9FE"/><path d="M60 72C28 72 11 97 9 120h102c-2-23-19-48-51-48Z" fill="#3C1478"/><path d="M60 76c-20 0-32 20-34 44h68c-2-24-14-44-34-44Z" fill="#5B21B6"/><circle cx="60" cy="107" r="8.5" fill="#D9A93F"/><rect x="52" y="60" width="16" height="18" rx="7" fill="#F2CDAE"/><circle cx="60" cy="46" r="23" fill="#F2CDAE"/><path d="M37 46c0-14 10-22 23-22s23 8 23 22v-2c0-16-10-24-23-24s-23 8-23 24Z" fill="#3F2A1D"/><path d="M37 44c0-15 10-23 23-23s23 8 23 23v3c-3-9-11-13-23-13s-20 4-23 13Z" fill="#3F2A1D"/><path d="M46 30h28l-4 6H50Z" fill="#D9A93F"/><path d="M60 31l3 5h-6Z" fill="#5B21B6"/><path d="M40 45c6-4 34-4 40 0-2 7-8 10-14 8-3-1-9-1-12 0-6 2-12-1-14-8Z" fill="#2E1065"/><ellipse cx="51" cy="47" rx="4" ry="2.6" fill="#FFFFFF"/><ellipse cx="69" cy="47" rx="4" ry="2.6" fill="#FFFFFF"/><path d="M54 58q6 4 12 0" stroke="#3A2E2E" stroke-width="2" fill="none" stroke-linecap="round" opacity=".7"/></svg>
