<svg xmlns="http://www.w3.org/2000/svg" viewBox="0 0 120 120" width="120" height="120" role="img" aria-label="Dante Cruz"><rect width="120" height="120" fill="#FFEDD5"/><path d="M60 72C28 72 11 97 9 120h102c-2-23-19-48-51-48Z" fill="#7C2D12"/><path d="M60 76c-20 0-32 20-34 44h68c-2-24-14-44-34-44Z" fill="#C2410C"/><circle cx="60" cy="107" r="8.5" fill="#FBBF24"/><path d="M62 101l-6 7h4l-2 6 6-7h-4l2-6Z" fill="#C2410C"/><rect x="52" y="60" width="16" height="18" rx="7" fill="#A56A45"/><circle cx="60" cy="46" r="23" fill="#A56A45"/><path d="M37 46a23 23 0 0 1 46 0v6a23 23 0 0 1-46 0Z" fill="#C2410C"/><path d="M37 46a23 23 0 0 1 46 0v-4c0-13-10-20-23-20s-23 7-23 20Z" fill="#C2410C"/><path d="M46 44c4-3 9-3 12 1-3 4-9 4-12-1Z" fill="#FFFFFF"/><path d="M74 44c-4-3-9-3-12 1 3 4 9 4 12-1Z" fill="#FFFFFF"/><path d="M54 58q6 4 12 0" stroke="#3A2E2E" stroke-width="2" fill="none" stroke-linecap="round" opacity=".7"/></svg>
