<svg xmlns="http://www.w3.org/2000/svg" viewBox="0 0 120 120" width="120" height="120" role="img" aria-label="Kai Nakamura"><rect width="120" height="120" fill="#DDD6FE"/><path d="M60 72C28 72 11 97 9 120h102c-2-23-19-48-51-48Z" fill="#1E1B4B"/><path d="M60 76c-20 0-32 20-34 44h68c-2-24-14-44-34-44Z" fill="#4338CA"/><circle cx="60" cy="107" r="8.5" fill="#A78BFA"/><rect x="52" y="60" width="16" height="18" rx="7" fill="#E8BD97"/><path d="M40 30l-3-15 13 9Z" fill="#4338CA"/><path d="M80 30l3-15-13 9Z" fill="#4338CA"/><circle cx="60" cy="46" r="23" fill="#E8BD97"/><path d="M37 46a23 23 0 0 1 46 0v6a23 23 0 0 1-46 0Z" fill="#4338CA"/><path d="M37 46a23 23 0 0 1 46 0v-4c0-13-10-20-23-20s-23 7-23 20Z" fill="#4338CA"/><path d="M46 44c4-3 9-3 12 1-3 4-9 4-12-1Z" fill="#FFFFFF"/><path d="M74 44c-4-3-9-3-12 1 3 4 9 4 12-1Z" fill="#FFFFFF"/><path d="M54 58q6 4 12 0" stroke="#3A2E2E" stroke-width="2" fill="none" stroke-linecap="round" opacity=".7"/></svg>
