<svg xmlns="http://www.w3.org/2000/svg" viewBox="0 0 120 120" width="120" height="120" role="img" aria-label="Mira Solano"><rect width="120" height="120" fill="#FEF9C3"/><path d="M60 72C28 72 11 97 9 120h102c-2-23-19-48-51-48Z" fill="#713F12"/><path d="M60 76c-20 0-32 20-34 44h68c-2-24-14-44-34-44Z" fill="#A16207"/><circle cx="60" cy="107" r="8.5" fill="#FDE68A"/><rect x="52" y="60" width="16" height="18" rx="7" fill="#F2CDAE"/><circle cx="60" cy="46" r="23" fill="#F2CDAE"/><path d="M37 46c0-14 10-22 23-22s23 8 23 22v-2c0-16-10-24-23-24s-23 8-23 24Z" fill="#44403C"/><path d="M37 44c0-15 10-23 23-23s23 8 23 23v3c-3-9-11-13-23-13s-20 4-23 13Z" fill="#44403C"/><ellipse cx="51" cy="47" rx="2.6" ry="3.2" fill="#2A2730"/><ellipse cx="69" cy="47" rx="2.6" ry="3.2" fill="#2A2730"/><path d="M54 58q6 4 12 0" stroke="#3A2E2E" stroke-width="2" fill="none" stroke-linecap="round" opacity=".7"/></svg>
